<?xml version="1.0" encoding="iso-8859-1"?>
<!-- Generator: Adobe Illustrator 19.0.0, SVG Export Plug-In . SVG Version: 6.00 Build 0)  -->
<svg version="1.1" id="Capa_1" xmlns="http://www.w3.org/2000/svg" xmlns:xlink="http://www.w3.org/1999/xlink" x="0px" y="0px"
	 viewBox="0 0 512 512" style="enable-background:new 0 0 512 512;" xml:space="preserve">
<path style="fill:#78B831;" d="M496.993,484.5H15.007c-9.888,0-17.074-9.42-14.469-18.952l65.888-241.227
	c1.782-6.523,7.707-11.047,14.469-11.047h110.017c5.842,0,11.153,3.392,13.609,8.693c16.67,35.971,38.381,67.713,51.479,85.457
	c13.097-17.742,34.809-49.485,51.479-85.457c2.456-5.301,7.767-8.693,13.609-8.693h110.017c6.762,0,12.688,4.524,14.469,11.047
	l65.888,241.227C514.068,475.084,506.877,484.5,496.993,484.5z"/>
<path style="fill:#50B03D;" d="M511.462,465.548l-65.888-241.227c-1.782-6.523-7.707-11.047-14.469-11.047H321.088
	c-5.842,0-11.153,3.392-13.609,8.693c-16.67,35.971-38.382,67.714-51.479,85.457V484.5h240.993
	C506.877,484.5,514.068,475.084,511.462,465.548z"/>
<path style="fill:#1592F7;" d="M445.574,224.321c-0.985-3.606-3.24-6.596-6.199-8.554L246,484.5h250.993
	c9.888,0,17.074-9.42,14.469-18.952L445.574,224.321z"/>
<path style="fill:#117EE1;" d="M511.462,465.548l-65.888-241.227c-0.985-3.606-3.24-6.596-6.199-8.554L256,470.604V484.5h240.993
	C506.881,484.5,514.067,475.08,511.462,465.548z"/>
<path style="fill:#F84033;" d="M244.47,341.565c-41.307-49.645-93.467-137.988-93.467-208.98C151.003,74.641,198.105,27.5,256,27.5
	s104.997,47.141,104.997,105.084c0,71.224-52.774,160.074-93.467,208.98C261.542,348.763,250.466,348.773,244.47,341.565z"/>
<path style="fill:#EE3C2F;" d="M256,27.5v319.467c4.268,0,8.536-1.802,11.53-5.402c40.693-48.906,93.466-137.757,93.466-208.98
	C360.997,74.641,313.895,27.5,256,27.5z"/>
<path style="fill:#FFFFF2;" d="M256,177.612c-24.812,0-44.999-20.199-44.999-45.028S231.188,87.556,256,87.556
	s44.999,20.2,44.999,45.028S280.812,177.612,256,177.612z"/>
<path style="fill:#FBB200;" d="M317.998,384.445H22.69L0.538,465.548c-2.605,9.536,4.586,18.952,14.469,18.952H246L317.998,384.445z
	"/>
<polygon style="fill:#F79B00;" points="256,384.445 256,470.604 317.998,384.445 "/>
<path style="fill:#FFFFF2;" d="M445.574,224.321c-1.782-6.523-7.707-11.047-14.469-11.047h-7.648L310.094,369.445H26.787l-8.194,30
	h269.725l-61.74,85.055h37.069L447.47,231.261L445.574,224.321z"/>
<g>
	<path style="fill:#F3F3E7;" d="M256,87.556v90.056c24.812,0,44.999-20.199,44.999-45.028S280.812,87.556,256,87.556z"/>
	<path style="fill:#F3F3E7;" d="M447.47,231.261l-1.895-6.94c-1.782-6.523-7.707-11.047-14.469-11.047h-7.648L310.094,369.445H256
		v30h32.318L256,443.966V484.5h7.647L447.47,231.261z"/>
</g>
<g>
</g>
<g>
</g>
<g>
</g>
<g>
</g>
<g>
</g>
<g>
</g>
<g>
</g>
<g>
</g>
<g>
</g>
<g>
</g>
<g>
</g>
<g>
</g>
<g>
</g>
<g>
</g>
<g>
</g>
</svg>
